<?xml version="1.0" encoding="UTF-8" standalone="no"?><!-- Generator: Gravit.io --><svg xmlns="http://www.w3.org/2000/svg" xmlns:xlink="http://www.w3.org/1999/xlink" style="isolation:isolate" viewBox="0 0 525 124" width="525pt" height="124pt"><defs><clipPath id="_clipPath_StmSwJFZNjqkDyo58diPXrOobrvwZPmt"><rect width="525" height="124"/></clipPath></defs><g clip-path="url(#_clipPath_StmSwJFZNjqkDyo58diPXrOobrvwZPmt)"><g><g><path d="M 16.745 0.17 L 107.025 0.17 C 116.239 0.17 123.72 7.651 123.72 16.865 L 123.72 107.145 C 123.72 116.359 116.239 123.84 107.025 123.84 L 16.745 123.84 C 7.531 123.84 0.05 116.359 0.05 107.145 L 0.05 16.865 C 0.05 7.651 7.531 0.17 16.745 0.17 Z" style="stroke:none;fill:#017CB9;stroke-miterlimit:10;"/><path d=" M 118.642 114.84 L 98.005 114.84 L 77.521 81.42 L 55.96 81.42 L 55.96 114.84 L 37.633 114.84 L 37.633 26.9 L 81.525 26.9 L 81.525 26.9 Q 97.235 26.9 105.782 33.677 L 105.782 33.677 L 105.782 33.677 Q 114.33 40.453 114.33 53.082 L 114.33 53.082 L 114.33 53.082 Q 114.33 62.323 109.093 69.022 L 109.093 69.022 L 109.093 69.022 Q 103.857 75.722 94.924 77.878 L 94.924 77.878 L 118.642 114.84 Z  M 95.848 53.852 L 95.848 53.852 L 95.848 53.852 Q 95.848 41.223 79.523 41.223 L 79.523 41.223 L 55.96 41.223 L 55.96 67.097 L 80.139 67.097 L 80.139 67.097 Q 87.84 67.097 91.844 63.632 L 91.844 63.632 L 91.844 63.632 Q 95.848 60.167 95.848 53.852 Z " fill="rgb(255,255,255)"/></g><path d=" M 159.805 115.517 L 159.805 115.517 L 159.805 115.517 Q 163.839 115.517 167.339 114.117 L 167.339 114.117 L 167.339 114.117 Q 170.838 112.717 174.213 110.165 L 174.213 110.165 L 177.507 115.105 L 177.507 115.105 Q 175.942 116.505 173.843 117.657 L 173.843 117.657 L 173.843 117.657 Q 171.743 118.81 169.315 119.592 L 169.315 119.592 L 169.315 119.592 Q 166.886 120.374 164.251 120.827 L 164.251 120.827 L 164.251 120.827 Q 161.616 121.28 158.982 121.28 L 158.982 121.28 L 158.982 121.28 Q 153.136 121.28 148.32 119.757 L 148.32 119.757 L 148.32 119.757 Q 143.503 118.234 140.127 115.311 L 140.127 115.311 L 140.127 115.311 Q 136.752 112.388 134.899 108.107 L 134.899 108.107 L 134.899 108.107 Q 133.047 103.825 133.047 98.227 L 133.047 98.227 L 133.047 98.227 Q 133.047 92.71 134.817 88.388 L 134.817 88.388 L 134.817 88.388 Q 136.587 84.065 139.757 81.143 L 139.757 81.143 L 139.757 81.143 Q 142.927 78.22 147.29 76.697 L 147.29 76.697 L 147.29 76.697 Q 151.654 75.173 156.923 75.173 L 156.923 75.173 L 156.923 75.173 Q 161.863 75.173 166.227 76.655 L 166.227 76.655 L 166.227 76.655 Q 170.591 78.137 173.802 80.978 L 173.802 80.978 L 173.802 80.978 Q 177.013 83.818 178.906 87.853 L 178.906 87.853 L 178.906 87.853 Q 180.8 91.887 180.8 96.992 L 180.8 96.992 L 180.8 102.755 L 145.644 102.755 L 145.644 102.755 Q 146.632 109.589 150.378 112.553 L 150.378 112.553 L 150.378 112.553 Q 154.124 115.517 159.805 115.517 Z  M 156.923 80.525 L 156.923 80.525 L 156.923 80.525 Q 154.536 80.525 152.477 81.431 L 152.477 81.431 L 152.477 81.431 Q 150.419 82.336 148.896 84.312 L 148.896 84.312 L 148.896 84.312 Q 147.373 86.288 146.426 89.417 L 146.426 89.417 L 146.426 89.417 Q 145.479 92.546 145.397 96.992 L 145.397 96.992 L 168.45 96.992 L 168.45 96.992 Q 168.45 92.71 167.462 89.582 L 167.462 89.582 L 167.462 89.582 Q 166.474 86.453 164.869 84.436 L 164.869 84.436 L 164.869 84.436 Q 163.263 82.419 161.164 81.472 L 161.164 81.472 L 161.164 81.472 Q 159.064 80.525 156.923 80.525 Z  M 235.552 93.698 L 235.552 119.633 L 224.025 119.633 L 224.025 93.698 L 224.025 93.698 Q 224.025 87.77 221.061 85.177 L 221.061 85.177 L 221.061 85.177 Q 218.097 82.583 212.498 82.583 L 212.498 82.583 L 201.795 82.583 L 201.795 119.633 L 190.268 119.633 L 190.268 76.82 L 212.498 76.82 L 212.498 76.82 Q 224.272 76.82 229.912 81.06 L 229.912 81.06 L 229.912 81.06 Q 235.552 85.3 235.552 93.698 L 235.552 93.698 Z  M 256.135 106.048 L 256.135 106.048 L 256.135 106.048 Q 256.135 113.87 265.603 113.87 L 265.603 113.87 L 277.13 113.87 L 277.13 98.227 L 265.603 98.227 L 265.603 98.227 Q 256.135 98.227 256.135 106.048 Z  M 265.603 92.463 L 277.13 92.463 L 277.13 92.463 Q 277.13 86.535 274.043 83.736 L 274.043 83.736 L 274.043 83.736 Q 270.955 80.937 266.015 80.937 L 266.015 80.937 L 266.015 80.937 Q 262.31 80.937 258.77 82.048 L 258.77 82.048 L 258.77 82.048 Q 255.229 83.16 252.43 85.053 L 252.43 85.053 L 249.548 80.113 L 249.548 80.113 Q 251.36 78.878 253.542 77.973 L 253.542 77.973 L 253.542 77.973 Q 255.723 77.067 258.029 76.45 L 258.029 76.45 L 258.029 76.45 Q 260.334 75.832 262.598 75.503 L 262.598 75.503 L 262.598 75.503 Q 264.862 75.173 266.838 75.173 L 266.838 75.173 L 266.838 75.173 Q 272.108 75.173 276.142 76.408 L 276.142 76.408 L 276.142 76.408 Q 280.176 77.643 282.976 79.949 L 282.976 79.949 L 282.976 79.949 Q 285.775 82.254 287.216 85.424 L 287.216 85.424 L 287.216 85.424 Q 288.657 88.594 288.657 92.463 L 288.657 92.463 L 288.657 119.633 L 265.603 119.633 L 265.603 119.633 Q 254.406 119.633 249.096 116.258 L 249.096 116.258 L 249.096 116.258 Q 243.785 112.882 243.785 106.048 L 243.785 106.048 L 243.785 106.048 Q 243.785 99.215 249.096 95.839 L 249.096 95.839 L 249.096 95.839 Q 254.406 92.463 265.603 92.463 L 265.603 92.463 Z  M 345.055 93.698 L 345.055 119.633 L 333.528 119.633 L 333.528 93.698 L 333.528 93.698 Q 333.528 87.77 330.564 85.177 L 330.564 85.177 L 330.564 85.177 Q 327.6 82.583 322.002 82.583 L 322.002 82.583 L 311.298 82.583 L 311.298 119.633 L 299.772 119.633 L 299.772 76.82 L 322.002 76.82 L 322.002 76.82 Q 333.775 76.82 339.415 81.06 L 339.415 81.06 L 339.415 81.06 Q 345.055 85.3 345.055 93.698 L 345.055 93.698 Z  M 356.17 62 L 383.34 62 L 383.34 62 Q 390.75 62 396.801 63.853 L 396.801 63.853 L 396.801 63.853 Q 402.853 65.705 407.175 69.328 L 407.175 69.328 L 407.175 69.328 Q 411.498 72.95 413.886 78.343 L 413.886 78.343 L 413.886 78.343 Q 416.273 83.736 416.273 90.817 L 416.273 90.817 L 416.273 90.817 Q 416.273 97.897 413.886 103.29 L 413.886 103.29 L 413.886 103.29 Q 411.498 108.683 407.175 112.306 L 407.175 112.306 L 407.175 112.306 Q 402.853 115.928 396.801 117.781 L 396.801 117.781 L 396.801 117.781 Q 390.75 119.633 383.34 119.633 L 383.34 119.633 L 356.17 119.633 L 356.17 62 Z  M 383.34 68.175 L 368.108 68.175 L 368.108 113.458 L 383.34 113.458 L 383.34 113.458 Q 387.539 113.458 391.203 112.182 L 391.203 112.182 L 391.203 112.182 Q 394.867 110.906 397.584 108.148 L 397.584 108.148 L 397.584 108.148 Q 400.301 105.39 401.906 101.108 L 401.906 101.108 L 401.906 101.108 Q 403.512 96.827 403.512 90.817 L 403.512 90.817 L 403.512 90.817 Q 403.512 84.806 401.906 80.525 L 401.906 80.525 L 401.906 80.525 Q 400.301 76.244 397.584 73.486 L 397.584 73.486 L 397.584 73.486 Q 394.867 70.727 391.203 69.451 L 391.203 69.451 L 391.203 69.451 Q 387.539 68.175 383.34 68.175 L 383.34 68.175 Z  M 450.03 115.517 L 450.03 115.517 L 450.03 115.517 Q 454.064 115.517 457.563 114.117 L 457.563 114.117 L 457.563 114.117 Q 461.063 112.717 464.438 110.165 L 464.438 110.165 L 467.732 115.105 L 467.732 115.105 Q 466.167 116.505 464.068 117.657 L 464.068 117.657 L 464.068 117.657 Q 461.968 118.81 459.539 119.592 L 459.539 119.592 L 459.539 119.592 Q 457.111 120.374 454.476 120.827 L 454.476 120.827 L 454.476 120.827 Q 451.841 121.28 449.207 121.28 L 449.207 121.28 L 449.207 121.28 Q 443.361 121.28 438.544 119.757 L 438.544 119.757 L 438.544 119.757 Q 433.728 118.234 430.352 115.311 L 430.352 115.311 L 430.352 115.311 Q 426.977 112.388 425.124 108.107 L 425.124 108.107 L 425.124 108.107 Q 423.272 103.825 423.272 98.227 L 423.272 98.227 L 423.272 98.227 Q 423.272 92.71 425.042 88.388 L 425.042 88.388 L 425.042 88.388 Q 426.812 84.065 429.982 81.143 L 429.982 81.143 L 429.982 81.143 Q 433.152 78.22 437.515 76.697 L 437.515 76.697 L 437.515 76.697 Q 441.879 75.173 447.148 75.173 L 447.148 75.173 L 447.148 75.173 Q 452.088 75.173 456.452 76.655 L 456.452 76.655 L 456.452 76.655 Q 460.816 78.137 464.027 80.978 L 464.027 80.978 L 464.027 80.978 Q 467.238 83.818 469.131 87.853 L 469.131 87.853 L 469.131 87.853 Q 471.025 91.887 471.025 96.992 L 471.025 96.992 L 471.025 102.755 L 435.869 102.755 L 435.869 102.755 Q 436.857 109.589 440.603 112.553 L 440.603 112.553 L 440.603 112.553 Q 444.349 115.517 450.03 115.517 Z  M 447.148 80.525 L 447.148 80.525 L 447.148 80.525 Q 444.761 80.525 442.702 81.431 L 442.702 81.431 L 442.702 81.431 Q 440.644 82.336 439.121 84.312 L 439.121 84.312 L 439.121 84.312 Q 437.598 86.288 436.651 89.417 L 436.651 89.417 L 436.651 89.417 Q 435.704 92.546 435.622 96.992 L 435.622 96.992 L 458.675 96.992 L 458.675 96.992 Q 458.675 92.71 457.687 89.582 L 457.687 89.582 L 457.687 89.582 Q 456.699 86.453 455.093 84.436 L 455.093 84.436 L 455.093 84.436 Q 453.488 82.419 451.388 81.472 L 451.388 81.472 L 451.388 81.472 Q 449.289 80.525 447.148 80.525 Z  M 524.953 76.82 L 508.487 119.633 L 490.373 119.633 L 473.907 76.82 L 485.433 76.82 L 499.018 112.635 L 499.842 112.635 L 513.427 76.82 L 524.953 76.82 Z " fill="rgb(1,124,185)"/></g></g></svg>