<?xml version="1.0" encoding="UTF-8" standalone="no"?>
<!-- Generator: Gravit.io -->

<svg
   style="isolation:isolate"
   viewBox="0 0 88 21"
   width="88pt"
   height="21pt"
   version="1.1"
   id="svg19"
   xmlns="http://www.w3.org/2000/svg"
   xmlns:svg="http://www.w3.org/2000/svg">
  <defs
     id="defs5">
    <clipPath
       id="_clipPath_StmSwJFZNjqkDyo58diPXrOobrvwZPmt">
      <rect
         width="525"
         height="124"
         id="rect2"
         x="0"
         y="0" />
    </clipPath>
  </defs>
  <g
     id="g888"
     transform="matrix(0.16764854,0,0,0.16764854,-0.00797685,0.10501289)">
    <path
       id="path7"
       style="fill:#ffffff;stroke:none;stroke-width:1.33333;stroke-miterlimit:10"
       d="m 22.326172,0.2265625 c -12.285333,0 -22.25976575,9.9744325 -22.25976575,22.2597655 V 142.85938 c 0,12.28533 9.97443275,22.25976 22.25976575,22.25976 H 142.69922 c 12.28533,0 22.26172,-9.97443 22.26172,-22.25976 V 22.486328 c 0,-12.285333 -9.97639,-22.2597655 -22.26172,-22.2597655 z M 50.177734,35.867188 h 58.521486 c 13.96444,-10e-7 24.74642,3.011156 32.34375,9.035156 7.59822,6.023111 11.39648,14.647269 11.39648,25.873047 0,8.214222 -2.32731,15.299239 -6.98242,21.253906 -4.65422,5.955555 -10.95213,9.892153 -18.89258,11.808593 l 31.625,49.28125 h -27.51562 l -27.3125,-44.55859 H 74.613281 v 44.55859 H 50.177734 Z m 24.435547,19.097656 v 34.498047 h 32.238279 c 6.84534,0 12.04831,-1.541094 15.60742,-4.621094 3.55912,-3.08 5.3379,-7.425729 5.3379,-13.039063 0,-11.225777 -7.25452,-16.83789 -21.76563,-16.83789 z"
       transform="scale(0.75)" />
    <path
       d="m 159.805,115.517 v 0 0 q 4.034,0 7.534,-1.4 v 0 0 q 3.499,-1.4 6.874,-3.952 v 0 l 3.294,4.94 v 0 q -1.565,1.4 -3.664,2.552 v 0 0 q -2.1,1.153 -4.528,1.935 v 0 0 q -2.429,0.782 -5.064,1.235 v 0 0 q -2.635,0.453 -5.269,0.453 v 0 0 q -5.846,0 -10.662,-1.523 v 0 0 q -4.817,-1.523 -8.193,-4.446 v 0 0 q -3.375,-2.923 -5.228,-7.204 v 0 0 q -1.852,-4.282 -1.852,-9.88 v 0 0 q 0,-5.517 1.77,-9.839 v 0 0 q 1.77,-4.323 4.94,-7.245 v 0 0 q 3.17,-2.923 7.533,-4.446 v 0 0 q 4.364,-1.524 9.633,-1.524 v 0 0 q 4.94,0 9.304,1.482 v 0 0 q 4.364,1.482 7.575,4.323 v 0 0 q 3.211,2.84 5.104,6.875 v 0 0 q 1.894,4.034 1.894,9.139 v 0 5.763 h -35.156 v 0 q 0.988,6.834 4.734,9.798 v 0 0 q 3.746,2.964 9.427,2.964 z m -2.882,-34.992 v 0 0 q -2.387,0 -4.446,0.906 v 0 0 q -2.058,0.905 -3.581,2.881 v 0 0 q -1.523,1.976 -2.47,5.105 v 0 0 q -0.947,3.129 -1.029,7.575 v 0 h 23.053 v 0 q 0,-4.282 -0.988,-7.41 v 0 0 q -0.988,-3.129 -2.593,-5.146 v 0 0 q -1.606,-2.017 -3.705,-2.964 v 0 0 q -2.1,-0.947 -4.241,-0.947 z m 78.629,13.173 v 25.935 h -11.527 v -25.935 0 q 0,-5.928 -2.964,-8.521 v 0 0 q -2.964,-2.594 -8.563,-2.594 v 0 h -10.703 v 37.05 H 190.268 V 76.82 h 22.23 v 0 q 11.774,0 17.414,4.24 v 0 0 q 5.64,4.24 5.64,12.638 z m 20.583,12.35 v 0 0 q 0,7.822 9.468,7.822 v 0 H 277.13 V 98.227 h -11.527 v 0 q -9.468,0 -9.468,7.821 z m 9.468,-13.585 h 11.527 v 0 q 0,-5.928 -3.087,-8.727 v 0 0 q -3.088,-2.799 -8.028,-2.799 v 0 0 q -3.705,0 -7.245,1.111 v 0 0 q -3.541,1.112 -6.34,3.005 v 0 l -2.882,-4.94 v 0 q 1.812,-1.235 3.994,-2.14 v 0 0 q 2.181,-0.906 4.487,-1.523 v 0 0 q 2.305,-0.618 4.569,-0.947 v 0 0 q 2.264,-0.33 4.24,-0.33 v 0 0 q 5.27,0 9.304,1.235 v 0 0 q 4.034,1.235 6.834,3.541 v 0 0 q 2.799,2.305 4.24,5.475 v 0 0 q 1.441,3.17 1.441,7.039 v 0 27.17 h -23.054 v 0 q -11.197,0 -16.507,-3.375 v 0 0 q -5.311,-3.376 -5.311,-10.21 v 0 0 q 0,-6.833 5.311,-10.209 v 0 0 q 5.31,-3.376 16.507,-3.376 z m 79.452,1.235 v 25.935 h -11.527 v -25.935 0 q 0,-5.928 -2.964,-8.521 v 0 0 q -2.964,-2.594 -8.562,-2.594 v 0 h -10.704 v 37.05 H 299.772 V 76.82 h 22.23 v 0 q 11.773,0 17.413,4.24 v 0 0 q 5.64,4.24 5.64,12.638 z M 356.17,62 h 27.17 v 0 q 7.41,0 13.461,1.853 v 0 0 q 6.052,1.852 10.374,5.475 v 0 0 q 4.323,3.622 6.711,9.015 v 0 0 q 2.387,5.393 2.387,12.474 v 0 0 q 0,7.08 -2.387,12.473 v 0 0 q -2.388,5.393 -6.711,9.016 v 0 0 q -4.322,3.622 -10.374,5.475 v 0 0 q -6.051,1.852 -13.461,1.852 v 0 h -27.17 z m 27.17,6.175 h -15.232 v 45.283 h 15.232 v 0 q 4.199,0 7.863,-1.276 v 0 0 q 3.664,-1.276 6.381,-4.034 v 0 0 q 2.717,-2.758 4.322,-7.04 v 0 0 q 1.606,-4.281 1.606,-10.291 v 0 0 q 0,-6.011 -1.606,-10.292 v 0 0 q -1.605,-4.281 -4.322,-7.039 v 0 0 q -2.717,-2.759 -6.381,-4.035 v 0 0 q -3.664,-1.276 -7.863,-1.276 z m 66.69,47.342 v 0 0 q 4.034,0 7.533,-1.4 v 0 0 q 3.5,-1.4 6.875,-3.952 v 0 l 3.294,4.94 v 0 q -1.565,1.4 -3.664,2.552 v 0 0 q -2.1,1.153 -4.529,1.935 v 0 0 q -2.428,0.782 -5.063,1.235 v 0 0 q -2.635,0.453 -5.269,0.453 v 0 0 q -5.846,0 -10.663,-1.523 v 0 0 q -4.816,-1.523 -8.192,-4.446 v 0 0 q -3.375,-2.923 -5.228,-7.204 v 0 0 q -1.852,-4.282 -1.852,-9.88 v 0 0 q 0,-5.517 1.77,-9.839 v 0 0 q 1.77,-4.323 4.94,-7.245 v 0 0 q 3.17,-2.923 7.533,-4.446 v 0 0 q 4.364,-1.524 9.633,-1.524 v 0 0 q 4.94,0 9.304,1.482 v 0 0 q 4.364,1.482 7.575,4.323 v 0 0 q 3.211,2.84 5.104,6.875 v 0 0 q 1.894,4.034 1.894,9.139 v 0 5.763 h -35.156 v 0 q 0.988,6.834 4.734,9.798 v 0 0 q 3.746,2.964 9.427,2.964 z m -2.882,-34.992 v 0 0 q -2.387,0 -4.446,0.906 v 0 0 q -2.058,0.905 -3.581,2.881 v 0 0 q -1.523,1.976 -2.47,5.105 v 0 0 q -0.947,3.129 -1.029,7.575 v 0 h 23.053 v 0 q 0,-4.282 -0.988,-7.41 v 0 0 q -0.988,-3.129 -2.594,-5.146 v 0 0 q -1.605,-2.017 -3.705,-2.964 v 0 0 q -2.099,-0.947 -4.24,-0.947 z m 77.805,-3.705 -16.466,42.813 H 490.373 L 473.907,76.82 h 11.526 l 13.585,35.815 h 0.824 L 513.427,76.82 Z"
       fill="#017cb9"
       id="path13"
       style="fill:#ffffff" />
  </g>
</svg>
