<?xml version="1.0" encoding="UTF-8" standalone="no"?>
<!-- Created with Inkscape (http://www.inkscape.org/) -->

<svg
   width="108"
   height="29"
   viewBox="0 0 28.574999 7.6729167"
   version="1.1"
   id="svg5"
   xmlns:xlink="http://www.w3.org/1999/xlink"
   xmlns="http://www.w3.org/2000/svg"
   xmlns:svg="http://www.w3.org/2000/svg">
  <defs
     id="defs2">
    <color-profile
       name="Best-RGB"
       xlink:href="file:///usr/share/color/icc/colord/BestRGB.icc"
       id="color-profile852" />
  </defs>
  <g
     id="layer1">
    <g
       id="g11247"
       transform="matrix(0.25244464,0,0,0.25244464,-2.9583574,-9.2263779)">
      <rect
         style="fill:#00759e;fill-opacity:1;stroke-width:1.83002"
         id="rect962"
         width="30.249817"
         height="30.249817"
         x="11.719641"
         y="36.620441"
         ry="4.7318416" />
      <g
         aria-label="R"
         id="text3114"
         style="font-size:10.5833px;line-height:1.25;fill:#ffffff;stroke-width:0.264583"
         transform="matrix(2.6452681,0,0,2.6452681,-19.487852,-211.8685)">
        <path
           d="m 19.007656,96.679573 q 0.793748,0 1.418163,0.179916 0.634998,0.169333 1.068913,0.507999 0.433915,0.328082 0.666748,0.814914 0.232832,0.476248 0.232832,1.09008 0,0.846668 -0.423332,1.428748 -0.423332,0.58208 -1.217079,0.88899 l 1.746244,2.49766 h -1.746244 l -1.555745,-2.22249 h -0.1905 -2.275409 v 2.22249 h -1.534578 v -7.408307 z m -2.275409,0.793748 v 3.598319 h 2.275409 q 0.836081,0 1.291163,-0.43391 0.455082,-0.4445 0.455082,-1.365248 0,-0.920747 -0.455082,-1.354663 -0.455082,-0.444498 -1.291163,-0.444498 z"
           style="font-family:'Prosto One';-inkscape-font-specification:'Prosto One';fill:#ffffff"
           id="path8146" />
      </g>
      <g
         aria-label="enanDev"
         id="text9316"
         style="font-size:10.5833px;line-height:1.25;fill:#00759e;fill-opacity:1;stroke-width:0.264583"
         transform="matrix(1.6133078,0,0,1.6133078,-9.0716998,-104.23234)">
        <path
           d="m 36.111698,103.8657 q 0.518582,0 0.96308,-0.17991 0.455082,-0.17992 0.888997,-0.508 l 0.423332,0.635 q -0.201082,0.17991 -0.476248,0.32808 -0.264583,0.14816 -0.582082,0.254 -0.306915,0.0953 -0.645581,0.14816 -0.338665,0.0635 -0.677331,0.0635 -0.751414,0 -1.375829,-0.20108 -0.613831,-0.1905 -1.047747,-0.56091 -0.433915,-0.381 -0.677331,-0.93134 -0.232832,-0.55033 -0.232832,-1.26999 0,-0.70908 0.222249,-1.25941 0.232832,-0.560918 0.634998,-0.931334 0.412749,-0.380999 0.973663,-0.571498 0.560915,-0.201083 1.238246,-0.201083 0.634998,0 1.195913,0.1905 0.560915,0.190499 0.973664,0.560914 0.412749,0.359833 0.656164,0.878411 0.243416,0.51858 0.243416,1.17475 v 0.74083 H 34.29137 q 0.127,0.87841 0.603248,1.25941 0.486832,0.381 1.21708,0.381 z m -0.370416,-4.4979 q -0.306915,0 -0.571498,0.116416 -0.264582,0.116416 -0.465665,0.370415 -0.190499,0.253999 -0.317499,0.656169 -0.116416,0.40216 -0.126999,0.97366 h 2.963323 q 0,-0.55033 -0.126999,-0.9525 -0.127,-0.40216 -0.338666,-0.656162 Q 36.556197,99.611216 36.281031,99.494799 36.016448,99.3678 35.741282,99.3678 Z"
           style="font-family:'Prosto One';-inkscape-font-specification:'Prosto One';fill:#00759e;fill-opacity:1"
           id="path10828" />
        <path
           d="m 45.848314,104.39487 h -1.481662 v -3.33374 q 0,-0.762 -0.380999,-1.090082 -0.380998,-0.338666 -1.100663,-0.338666 h -1.375829 v 4.762488 h -1.481662 v -5.503319 h 2.857491 q 1.513412,0 2.233076,0.550332 0.730248,0.539748 0.730248,1.619247 z"
           style="font-family:'Prosto One';-inkscape-font-specification:'Prosto One';fill:#00759e;fill-opacity:1"
           id="path10830" />
        <path
           d="m 48.494133,102.64862 q 0,1.00542 1.217079,1.00542 h 1.481662 v -2.01083 h -1.481662 q -1.217079,0 -1.217079,1.00541 z m 2.698741,-1.74624 q 0,-0.762 -0.402165,-1.121832 -0.391582,-0.359832 -1.02658,-0.359832 -0.476249,0 -0.931331,0.148166 -0.455081,0.137583 -0.814914,0.380999 l -0.370415,-0.634998 q 0.232833,-0.158749 0.507998,-0.275166 0.285749,-0.116416 0.582082,-0.190499 0.296332,-0.08467 0.582081,-0.127 0.296333,-0.04233 0.550332,-0.04233 0.677331,0 1.195913,0.15875 0.518581,0.158749 0.878414,0.455082 0.359832,0.296332 0.539748,0.70908 0.190499,0.40216 0.190499,0.89958 v 3.49249 h -2.963324 q -1.439328,0 -2.127243,-0.43392 -0.677331,-0.43391 -0.677331,-1.31233 0,-0.87841 0.677331,-1.31233 0.687915,-0.43391 2.127243,-0.43391 z"
           style="font-family:'Prosto One';-inkscape-font-specification:'Prosto One';fill:#00759e;fill-opacity:1"
           id="path10832" />
        <path
           d="M 59.924082,104.39487 H 58.44242 v -3.33374 q 0,-0.762 -0.380999,-1.090082 -0.380998,-0.338666 -1.100663,-0.338666 h -1.375829 v 4.762488 h -1.481662 v -5.503319 h 2.857491 q 1.513412,0 2.233076,0.550332 0.730248,0.539748 0.730248,1.619247 z"
           style="font-family:'Prosto One';-inkscape-font-specification:'Prosto One';fill:#00759e;fill-opacity:1"
           id="path10834" />
        <path
           d="m 64.84531,96.986557 q 0.952497,0 1.725078,0.243416 0.783164,0.232833 1.333495,0.698498 0.560915,0.465665 0.867831,1.164163 0.306916,0.687914 0.306916,1.598076 0,0.91017 -0.306916,1.60866 -0.306916,0.68792 -0.867831,1.15358 -0.550331,0.46567 -1.333495,0.70908 -0.772581,0.23284 -1.725078,0.23284 h -3.492489 v -7.408313 z m -1.957911,0.793748 v 5.820815 h 1.957911 q 0.539748,0 1.005413,-0.15875 0.476249,-0.16933 0.825498,-0.51858 0.349249,-0.35983 0.550331,-0.91017 0.211666,-0.55033 0.211666,-1.32291 0,-0.772579 -0.211666,-1.32291 -0.201082,-0.550332 -0.550331,-0.899581 -0.349249,-0.359832 -0.825498,-0.518582 -0.465665,-0.169332 -1.005413,-0.169332 z"
           style="font-family:'Prosto One';-inkscape-font-specification:'Prosto One';fill:#00759e;fill-opacity:1"
           id="path10836" />
        <path
           d="m 73.417763,103.8657 q 0.518581,0 0.96308,-0.17991 0.455082,-0.17992 0.888997,-0.508 l 0.423332,0.635 q -0.201083,0.17991 -0.476249,0.32808 -0.264582,0.14816 -0.582081,0.254 -0.306916,0.0953 -0.645581,0.14816 -0.338666,0.0635 -0.677331,0.0635 -0.751415,0 -1.375829,-0.20108 -0.613832,-0.1905 -1.047747,-0.56091 -0.433915,-0.381 -0.677331,-0.93134 -0.232833,-0.55033 -0.232833,-1.26999 0,-0.70908 0.222249,-1.25941 0.232833,-0.560918 0.634998,-0.931334 0.412749,-0.380999 0.973664,-0.571498 0.560915,-0.201083 1.238246,-0.201083 0.634998,0 1.195913,0.1905 0.560915,0.190499 0.973663,0.560914 0.412749,0.359833 0.656165,0.878411 0.243416,0.51858 0.243416,1.17475 v 0.74083 h -4.519069 q 0.127,0.87841 0.603248,1.25941 0.486832,0.381 1.21708,0.381 z m -0.370416,-4.4979 q -0.306916,0 -0.571498,0.116416 -0.264583,0.116416 -0.465665,0.370415 -0.1905,0.253999 -0.317499,0.656169 -0.116417,0.40216 -0.127,0.97366 h 2.963324 q 0,-0.55033 -0.127,-0.9525 Q 74.27501,100.1298 74.063344,99.875798 73.862261,99.611216 73.587095,99.494799 73.322513,99.3678 73.047347,99.3678 Z"
           style="font-family:'Prosto One';-inkscape-font-specification:'Prosto One';fill:#00759e;fill-opacity:1"
           id="path10838" />
        <path
           d="m 80.931884,104.39487 h -2.328326 l -2.11666,-5.503319 h 1.481662 l 1.746245,4.603739 h 0.105833 l 1.746244,-4.603739 h 1.481662 z"
           style="font-family:'Prosto One';-inkscape-font-specification:'Prosto One';fill:#00759e;fill-opacity:1"
           id="path10840" />
      </g>
    </g>
  </g>
</svg>
